<?xml version="1.0" encoding="iso-8859-1"?>
<!-- Generator: Adobe Illustrator 19.0.0, SVG Export Plug-In . SVG Version: 6.00 Build 0)  -->
<svg xmlns="http://www.w3.org/2000/svg" xmlns:xlink="http://www.w3.org/1999/xlink" version="1.1" id="Capa_1" x="0px" y="0px" viewBox="0 0 511.995 511.995" style="enable-background:new 0 0 511.995 511.995;" xml:space="preserve" width="512px" height="512px">
<g>
	<g>
		<path d="M469.331,179.197H42.664c-4.71,0-8.533,3.823-8.533,8.533v290.133c0,4.719,3.823,8.533,8.533,8.533h426.667    c4.719,0,8.533-3.814,8.533-8.533V187.73C477.864,183.02,474.05,179.197,469.331,179.197z M460.797,469.33h-409.6V196.264h409.6    V469.33z" fill="#c7d6db"/>
	</g>
</g>
<g>
	<g>
		<path d="M511.605,304.654L426.272,31.587c-1.408-4.497-6.212-7.006-10.684-5.598l-409.6,128c-4.42,1.382-6.929,6.033-5.658,10.487    l34.133,119.467l16.41-4.685L19.027,167.796L412.533,44.823l80.094,256.299l-25.361,6.34l4.13,16.546l34.133-8.542    c2.287-0.563,4.224-2.048,5.376-4.096C512.057,309.322,512.305,306.898,511.605,304.654z" fill="#c7d6db"/>
	</g>
</g>
<g>
	<g>
		<path d="M399.084,318.785c-1.493-1.775-3.635-2.867-5.948-3.038c-2.321-0.213-4.591,0.606-6.315,2.167l-78.711,70.835    L194.318,250.57c-1.536-1.852-3.772-2.978-6.178-3.098c-2.423-0.043-4.745,0.785-6.443,2.492L70.764,360.897l12.066,12.066    l104.294-104.277l113.493,137.805c1.476,1.801,3.627,2.901,5.948,3.081c0.205,0.017,0.427,0.026,0.631,0.026    c2.099,0,4.139-0.777,5.7-2.202l78.746-70.869l36.992,44.39l13.116-10.931L399.084,318.785z" fill="#c7d6db"/>
	</g>
</g>
<g>
	<g>
		<path d="M307.197,247.464c-23.526,0-42.667,19.14-42.667,42.667c0,23.526,19.14,42.667,42.667,42.667    c23.526,0,42.667-19.14,42.667-42.667C349.864,266.604,330.724,247.464,307.197,247.464z M307.197,315.73    c-14.114,0-25.6-11.486-25.6-25.6s11.486-25.6,25.6-25.6c14.123,0,25.6,11.486,25.6,25.6S321.312,315.73,307.197,315.73z" fill="#c7d6db"/>
	</g>
</g>
<g>
	<g>
		<path d="M435.197,213.33h-358.4c-4.71,0-8.533,3.823-8.533,8.533V443.73c0,4.719,3.823,8.533,8.533,8.533h358.4    c4.719,0,8.533-3.814,8.533-8.533V221.864C443.731,217.153,439.916,213.33,435.197,213.33z M426.664,435.197H85.331v-204.8    h341.333V435.197z" fill="#c7d6db"/>
	</g>
</g>
<g>
	<g>
		<path d="M400.62,82.634c-1.459-4.386-6.153-6.852-10.598-5.453l-332.8,102.4l5.018,16.307l324.838-99.942l31.497,94.49    l16.179-5.402L400.62,82.634z" fill="#c7d6db"/>
	</g>
</g>
<g>
	<g>
		<path d="M380.593,151.045c-5.692-4.275-12.911-6.409-20.087-5.888c-9.924-15.053-29.483-21.444-46.729-14.276    c-8.149,3.396-14.729,9.395-18.85,16.905c-12.689-5.393-27.964-2.697-38.042,7.842c-8.926,9.361-11.793,22.758-7.484,34.953    l16.085-5.692c-2.15-6.093-0.717-12.791,3.738-17.468c6.528-6.81,17.331-7.057,24.141-0.563c2.27,2.167,5.53,2.918,8.499,1.954    c2.978-0.956,5.197-3.465,5.777-6.537c1.331-7.04,6.084-12.885,12.698-15.642c5.248-2.176,11.025-2.176,16.256-0.034    c5.257,2.159,9.344,6.238,11.529,11.477c1.749,4.215,6.528,6.323,10.82,4.727c3.831-1.417,8.201-0.512,11.392,1.886    c5.649,4.232,6.801,12.271,2.568,17.92l13.653,10.24C396.439,179.675,393.76,160.919,380.593,151.045z" fill="#c7d6db"/>
	</g>
</g>
<g>
</g>
<g>
</g>
<g>
</g>
<g>
</g>
<g>
</g>
<g>
</g>
<g>
</g>
<g>
</g>
<g>
</g>
<g>
</g>
<g>
</g>
<g>
</g>
<g>
</g>
<g>
</g>
<g>
</g>
</svg>
