<?xml version="1.0" encoding="iso-8859-1"?>
<!-- Generator: Adobe Illustrator 19.0.0, SVG Export Plug-In . SVG Version: 6.00 Build 0)  -->
<svg xmlns="http://www.w3.org/2000/svg" xmlns:xlink="http://www.w3.org/1999/xlink" version="1.1" id="Capa_1" x="0px" y="0px" viewBox="0 0 512 512" style="enable-background:new 0 0 512 512;" xml:space="preserve" width="512px" height="512px">
<g>
	<g>
		<path d="M358.4,0H153.6c-18.825,0-34.133,15.309-34.133,34.133v443.733c0,18.825,15.309,34.133,34.133,34.133h204.8    c18.825,0,34.133-15.309,34.133-34.133V34.133C392.533,15.309,377.225,0,358.4,0z M375.467,477.867    c0,9.412-7.654,17.067-17.067,17.067H153.6c-9.412,0-17.067-7.654-17.067-17.067V34.133c0-9.412,7.654-17.067,17.067-17.067h204.8    c9.412,0,17.067,7.654,17.067,17.067V477.867z" fill="#a7b7c3"/>
	</g>
</g>
<g>
	<g>
		<rect x="128" y="426.667" width="256" height="17.067" fill="#a7b7c3"/>
	</g>
</g>
<g>
	<g>
		<rect x="128" y="68.267" width="76.8" height="17.067" fill="#a7b7c3"/>
	</g>
</g>
<g>
	<g>
		<rect x="221.867" y="460.8" width="68.267" height="17.067" fill="#a7b7c3"/>
	</g>
</g>
<g>
	<g>
		<rect x="298.667" y="68.267" width="85.333" height="17.067" fill="#a7b7c3"/>
	</g>
</g>
<g>
	<g>
		<path d="M225.399,170.667l19.567-19.567L232.9,139.034l-25.6,25.6c-3.337,3.337-3.337,8.73,0,12.066l42.667,42.667l12.066-12.066    L225.399,170.667z" fill="#a7b7c3"/>
	</g>
</g>
<g>
	<g>
		
			<rect x="298.671" y="103.866" transform="matrix(0.7071 -0.7071 0.7071 0.7071 -0.533 254.7177)" width="17.067" height="48.273" fill="#a7b7c3"/>
	</g>
</g>
<g>
	<g>
		<path d="M256,25.6c-10.743,0-21.154,3.149-30.08,9.114c-24.849,16.589-31.573,50.304-14.993,75.145l37.973,57.003    c1.579,2.381,4.25,3.806,7.1,3.806c2.859,0,5.513-1.425,7.108-3.806l37.973-56.994c5.965-8.934,9.114-19.337,9.114-30.08    C310.187,49.911,285.875,25.6,256,25.6z M286.874,100.395L256,146.739l-30.882-46.353c-11.358-17.015-6.75-40.115,10.274-51.482    c6.118-4.079,13.244-6.238,20.608-6.238c20.463,0,37.12,16.657,37.12,37.111C293.12,87.134,290.961,94.259,286.874,100.395z" fill="#a7b7c3"/>
	</g>
</g>
<g>
	<g>
		<circle cx="256" cy="76.8" r="17.067" fill="#a7b7c3"/>
	</g>
</g>
<g>
	<g>
		<path d="M377.967,79.3L204.8,252.467L134.033,181.7l-12.066,12.066l76.8,76.8c1.664,1.664,3.849,2.5,6.033,2.5    c2.185,0,4.369-0.836,6.033-2.5l179.2-179.2L377.967,79.3z" fill="#a7b7c3"/>
	</g>
</g>
<g>
	<g>
		<path d="M176.7,292.634l-42.667-42.667l-12.066,12.066l36.634,36.634L121.967,335.3l12.066,12.066L176.7,304.7    C180.036,301.363,180.036,295.97,176.7,292.634z" fill="#a7b7c3"/>
	</g>
</g>
<g>
	<g>
		<path d="M390.033,210.833l-12.066-12.066L258.5,318.234c-3.336,3.337-3.336,8.73,0,12.066l110.933,110.933l12.066-12.066    l-104.9-104.9L390.033,210.833z" fill="#a7b7c3"/>
	</g>
</g>
<g>
	<g>
		<path d="M236.433,352.367c-3.337-3.337-8.73-3.337-12.066,0l-76.8,76.8l12.066,12.066l70.767-70.767l70.767,70.767l12.066-12.066    L236.433,352.367z" fill="#a7b7c3"/>
	</g>
</g>
<g>
	<g>
		<path d="M185.233,343.825c-2.287-2.287-5.666-3.106-8.73-2.057l-25.6,8.533c-2.807,0.939-4.924,3.251-5.606,6.135    c-0.683,2.876,0.179,5.905,2.27,7.996l17.067,17.067c1.613,1.613,3.797,2.5,6.033,2.5c0.657,0,1.314-0.077,1.963-0.239    c2.876-0.683,5.197-2.799,6.135-5.606l8.533-25.6C188.314,349.491,187.52,346.112,185.233,343.825z" fill="#a7b7c3"/>
	</g>
</g>
<g>
	<g>
		
			<rect x="201.261" y="315.736" transform="matrix(0.7071 -0.7071 0.7071 0.7071 -166.8109 245.8215)" width="24.132" height="17.067" fill="#a7b7c3"/>
	</g>
</g>
<g>
	<g>
		
			<rect x="235.395" y="281.604" transform="matrix(0.7071 -0.7071 0.7071 0.7071 -132.6788 259.9612)" width="24.132" height="17.066" fill="#a7b7c3"/>
	</g>
</g>
<g>
	<g>
		
			<rect x="269.528" y="247.456" transform="matrix(0.7071 -0.7071 0.7071 0.7071 -98.5345 274.0938)" width="24.132" height="17.067" fill="#a7b7c3"/>
	</g>
</g>
<g>
	<g>
		<path d="M330.3,207.3l-17.067-17.067L301.167,202.3l11.034,11.034l-11.034,11.034l12.066,12.066l17.067-17.067    C333.636,216.03,333.636,210.637,330.3,207.3z" fill="#a7b7c3"/>
	</g>
</g>
<g>
	<g>
		<path d="M364.433,352.367L330.3,318.234c-3.337-3.336-8.73-3.336-12.066,0l-25.6,25.6L304.7,355.9l19.567-19.567l22.067,22.067    l-19.567,19.567l12.066,12.066l25.6-25.6C367.77,361.097,367.77,355.703,364.433,352.367z" fill="#a7b7c3"/>
	</g>
</g>
<g>
</g>
<g>
</g>
<g>
</g>
<g>
</g>
<g>
</g>
<g>
</g>
<g>
</g>
<g>
</g>
<g>
</g>
<g>
</g>
<g>
</g>
<g>
</g>
<g>
</g>
<g>
</g>
<g>
</g>
</svg>
