<?xml version="1.0" encoding="iso-8859-1"?>
<!-- Generator: Adobe Illustrator 19.0.0, SVG Export Plug-In . SVG Version: 6.00 Build 0)  -->
<svg xmlns="http://www.w3.org/2000/svg" xmlns:xlink="http://www.w3.org/1999/xlink" version="1.1" id="Capa_1" x="0px" y="0px" viewBox="0 0 512 512" style="enable-background:new 0 0 512 512;" xml:space="preserve" width="512px" height="512px">
<g>
	<g>
		<rect x="394.847" y="8.678" width="17.356" height="78.102" fill="#c7d6db"/>
	</g>
</g>
<g>
	<g>
		<path d="M403.525,0c-43.069,0-78.102,35.042-78.102,78.102s35.033,78.102,78.102,78.102c43.069,0,78.102-35.042,78.102-78.102    S446.594,0,403.525,0z M403.525,138.847c-33.488,0-60.746-27.249-60.746-60.746s27.258-60.746,60.746-60.746    s60.746,27.249,60.746,60.746S437.014,138.847,403.525,138.847z" fill="#c7d6db"/>
	</g>
</g>
<g>
	<g>
		<rect x="195.254" y="286.373" width="17.356" height="182.237" fill="#c7d6db"/>
	</g>
</g>
<g>
	<g>
		<path d="M282.034,459.932H160.542c-23.925,0-43.39,19.465-43.39,43.39c0,4.799,3.888,8.678,8.678,8.678h190.915    c4.799,0,8.678-3.879,8.678-8.678C325.424,479.397,305.959,459.932,282.034,459.932z M135.992,494.644    c3.584-10.101,13.234-17.356,24.55-17.356h121.492c11.316,0,20.966,7.255,24.55,17.356H135.992z" fill="#c7d6db"/>
	</g>
</g>
<g>
	<g>
		<rect x="229.966" y="286.373" width="17.356" height="182.237" fill="#c7d6db"/>
	</g>
</g>
<g>
	<g>
		<path d="M403.525,69.424H39.051c-4.79,0-8.678,3.888-8.678,8.678v26.034c0,59.288,45.967,108.041,104.136,112.484v0.33    c0,47.85,38.929,86.78,86.78,86.78c47.85,0,86.78-38.929,86.78-86.78v-0.33c58.168-4.443,104.136-53.196,104.136-112.484V78.102    C412.203,73.311,408.324,69.424,403.525,69.424z M394.847,104.136c0,52.632-42.826,95.458-95.458,95.458    c-4.799,0-8.678,3.888-8.678,8.678v8.678c0,38.279-31.145,69.424-69.424,69.424s-69.424-31.145-69.424-69.424v-8.678    c0-4.79-3.888-8.678-8.678-8.678c-52.632,0-95.458-42.826-95.458-95.458V86.78h347.119V104.136z" fill="#c7d6db"/>
	</g>
</g>
<g>
	<g>
		<rect x="47.729" y="138.847" width="347.119" height="17.356" fill="#c7d6db"/>
	</g>
</g>
<g>
	<g>
		<rect x="407.344" y="69.424" width="69.424" height="17.356" fill="#c7d6db"/>
	</g>
</g>
<g>
	<g>
		
			<rect x="394.874" y="10.323" transform="matrix(0.7682 -0.6402 0.6402 0.7682 43.5432 276.4584)" width="17.356" height="135.549" fill="#c7d6db"/>
	</g>
</g>
<g>
	<g>
		
			<rect x="329.923" y="69.397" transform="matrix(0.7071 -0.7071 0.7071 0.7071 62.9929 308.2272)" width="147.272" height="17.356" fill="#c7d6db"/>
	</g>
</g>
<g>
</g>
<g>
</g>
<g>
</g>
<g>
</g>
<g>
</g>
<g>
</g>
<g>
</g>
<g>
</g>
<g>
</g>
<g>
</g>
<g>
</g>
<g>
</g>
<g>
</g>
<g>
</g>
<g>
</g>
</svg>
