<?xml version="1.0" encoding="iso-8859-1"?>
<!-- Generator: Adobe Illustrator 19.0.0, SVG Export Plug-In . SVG Version: 6.00 Build 0)  -->
<svg xmlns="http://www.w3.org/2000/svg" xmlns:xlink="http://www.w3.org/1999/xlink" version="1.1" id="Capa_1" x="0px" y="0px" viewBox="0 0 512 512" style="enable-background:new 0 0 512 512;" xml:space="preserve" width="512px" height="512px">
<g>
	<g>
		<path d="M160.026,384.171l-78.037-0.154l-13.807-89.062c-1.835-12.518-12.698-21.888-25.173-21.888c-0.154,0-0.316,0-0.478,0    c-14.02,0-25.481,11.349-25.6,25.421c-0.009,1.143,0.051,2.278,0.188,3.319l13.056,110.916    c1.502,12.937,12.416,22.647,25.37,22.647c0.06,0,0.12,0,0.179,0h104.286c14.114,0,25.6-11.486,25.6-25.6    S174.123,384.171,160.026,384.171z M160,418.304H55.654c-0.017,0-0.043,0-0.06,0c-4.335,0-7.97-3.234-8.474-7.569L34.057,299.716    c-0.043-0.375-0.06-0.759-0.06-1.118c0.034-4.685,3.857-8.465,8.687-8.465c0.06,0,0.111-0.009,0.162,0    c4.215,0,7.834,3.123,8.457,7.364l14.933,96.341c0.64,4.156,4.216,7.219,8.414,7.228l85.35,0.171c4.702,0,8.533,3.823,8.533,8.533    C168.533,414.481,164.702,418.304,160,418.304z" fill="#c7d6db"/>
	</g>
</g>
<g>
	<g>
		
			<rect x="12.825" y="456.573" transform="matrix(0.3164 -0.9486 0.9486 0.3164 -404.7732 368.5065)" width="80.954" height="17.066" fill="#c7d6db"/>
	</g>
</g>
<g>
	<g>
		
			<rect x="147.19" y="424.605" transform="matrix(0.9487 -0.3162 0.3162 0.9487 -139.0687 73.1013)" width="17.067" height="80.956" fill="#c7d6db"/>
	</g>
</g>
<g>
	<g>
		<path d="M375.467,307.2H136.533c-4.71,0-8.533,3.814-8.533,8.533v34.133c0,4.719,3.823,8.533,8.533,8.533h238.933    c4.719,0,8.533-3.814,8.533-8.533v-34.133C384,311.014,380.186,307.2,375.467,307.2z M366.933,341.333H145.067v-17.067h221.867    V341.333z" fill="#c7d6db"/>
	</g>
</g>
<g>
	<g>
		<path d="M273.067,341.333h-34.133c-4.71,0-8.533,3.814-8.533,8.533v153.6c0,4.719,3.823,8.533,8.533,8.533h34.133    c4.719,0,8.533-3.814,8.533-8.533v-153.6C281.6,345.148,277.786,341.333,273.067,341.333z M264.533,494.933h-17.067V358.4h17.067    V494.933z" fill="#c7d6db"/>
	</g>
</g>
<g>
	<g>
		<path d="M503.211,74.726L486.144,6.46C485.188,2.671,481.784,0,477.867,0H34.133c-3.917,0-7.33,2.671-8.277,6.46L8.789,74.726    c-0.64,2.552-0.06,5.248,1.553,7.322c1.613,2.074,4.096,3.285,6.724,3.285h477.867c2.628,0,5.103-1.212,6.724-3.285    C503.279,79.974,503.851,77.278,503.211,74.726z M27.998,68.267l12.8-51.2h430.404l12.8,51.2H27.998z" fill="#c7d6db"/>
	</g>
</g>
<g>
	<g>
		<path d="M290.133,68.267h-68.267c-4.71,0-8.533,3.823-8.533,8.533v25.6c0,23.526,19.14,42.667,42.667,42.667    c23.526,0,42.667-19.14,42.667-42.667V76.8C298.667,72.09,294.852,68.267,290.133,68.267z M281.6,102.4    c0,14.114-11.486,25.6-25.6,25.6s-25.6-11.486-25.6-25.6V85.333h51.2V102.4z" fill="#c7d6db"/>
	</g>
</g>
<g>
	<g>
		<path d="M221.867,68.267H153.6c-4.71,0-8.533,3.823-8.533,8.533v25.6c0,23.526,19.14,42.667,42.667,42.667    c23.526,0,42.667-19.14,42.667-42.667V76.8C230.4,72.09,226.577,68.267,221.867,68.267z M213.333,102.4    c0,14.114-11.486,25.6-25.6,25.6s-25.6-11.486-25.6-25.6V85.333h51.2V102.4z" fill="#c7d6db"/>
	</g>
</g>
<g>
	<g>
		<path d="M153.6,68.267H85.333c-4.71,0-8.533,3.823-8.533,8.533v25.6c0,23.526,19.14,42.667,42.667,42.667    s42.667-19.14,42.667-42.667V76.8C162.133,72.09,158.31,68.267,153.6,68.267z M145.067,102.4c0,14.114-11.486,25.6-25.6,25.6    s-25.6-11.486-25.6-25.6V85.333h51.2V102.4z" fill="#c7d6db"/>
	</g>
</g>
<g>
	<g>
		<path d="M85.333,68.267H17.067c-4.71,0-8.533,3.823-8.533,8.533v25.6c0,23.526,19.14,42.667,42.667,42.667    c23.526,0,42.667-19.14,42.667-42.667V76.8C93.867,72.09,90.044,68.267,85.333,68.267z M76.8,102.4    c0,14.114-11.486,25.6-25.6,25.6s-25.6-11.486-25.6-25.6V85.333h51.2V102.4z" fill="#c7d6db"/>
	</g>
</g>
<g>
	<g>
		<path d="M358.4,68.267h-68.267c-4.719,0-8.533,3.823-8.533,8.533v25.6c0,23.526,19.14,42.667,42.667,42.667    c23.526,0,42.667-19.14,42.667-42.667V76.8C366.933,72.09,363.119,68.267,358.4,68.267z M349.867,102.4    c0,14.114-11.486,25.6-25.6,25.6s-25.6-11.486-25.6-25.6V85.333h51.2V102.4z" fill="#c7d6db"/>
	</g>
</g>
<g>
	<g>
		<path d="M426.667,68.267H358.4c-4.719,0-8.533,3.823-8.533,8.533v25.6c0,23.526,19.14,42.667,42.667,42.667    c23.526,0,42.667-19.14,42.667-42.667V76.8C435.2,72.09,431.386,68.267,426.667,68.267z M418.133,102.4    c0,14.114-11.486,25.6-25.6,25.6c-14.114,0-25.6-11.486-25.6-25.6V85.333h51.2V102.4z" fill="#c7d6db"/>
	</g>
</g>
<g>
	<g>
		<path d="M494.933,68.267h-68.267c-4.719,0-8.533,3.823-8.533,8.533v25.6c0,23.526,19.14,42.667,42.667,42.667    c23.526,0,42.667-19.14,42.667-42.667V76.8C503.467,72.09,499.652,68.267,494.933,68.267z M486.4,102.4    c0,14.114-11.486,25.6-25.6,25.6c-14.114,0-25.6-11.486-25.6-25.6V85.333h51.2V102.4z" fill="#c7d6db"/>
	</g>
</g>
<g>
	<g>
		<rect x="213.333" y="8.533" width="17.067" height="68.267" fill="#c7d6db"/>
	</g>
</g>
<g>
	<g>
		<rect x="281.6" y="8.533" width="17.067" height="68.267" fill="#c7d6db"/>
	</g>
</g>
<g>
	<g>
		<rect x="145.067" y="8.533" width="17.067" height="68.267" fill="#c7d6db"/>
	</g>
</g>
<g>
	<g>
		<rect x="349.867" y="8.533" width="17.067" height="68.267" fill="#c7d6db"/>
	</g>
</g>
<g>
	<g>
		<rect x="55.205" y="34.14" transform="matrix(0.124 -0.9923 0.9923 0.124 36.1406 126.2856)" width="68.78" height="17.067" fill="#c7d6db"/>
	</g>
</g>
<g>
	<g>
		<rect x="413.873" y="8.281" transform="matrix(0.9923 -0.124 0.124 0.9923 -2.0312 52.7069)" width="17.067" height="68.78" fill="#c7d6db"/>
	</g>
</g>
<g>
	<g>
		<path d="M469.641,273.067c-0.188,0-0.324,0-0.486,0c-12.629,0-23.484,9.361-25.318,21.82l-13.815,89.131L352,384.171    c-14.114,0-25.6,11.486-25.6,25.6s11.486,25.6,25.6,25.6h104.209c0.06,0,0.119,0,0.179,0c13.022,0,23.936-9.711,25.438-22.63    l13.047-110.899c0.137-1.126,0.205-2.261,0.196-3.371C494.967,284.416,483.499,273.067,469.641,273.067z M477.926,299.802    l-13.056,110.95c-0.503,4.318-4.139,7.552-8.533,7.552c-0.017,0-0.043,0-0.06,0H352c-4.71,0-8.533-3.823-8.533-8.533    s3.823-8.533,8.55-8.533l85.333-0.171c4.198-0.009,7.774-3.081,8.414-7.228l14.942-96.41c0.614-4.173,4.233-7.296,8.602-7.296    c0.051,0,0.119,0,0.162,0c4.676,0,8.499,3.78,8.533,8.491C478.012,299.008,477.978,299.392,477.926,299.802z" fill="#c7d6db"/>
	</g>
</g>
<g>
	<g>
		
			<rect x="450.131" y="424.614" transform="matrix(0.9487 -0.3162 0.3162 0.9487 -123.5289 168.8896)" width="17.058" height="80.956" fill="#c7d6db"/>
	</g>
</g>
<g>
	<g>
		
			<rect x="315.816" y="456.493" transform="matrix(0.3165 -0.9486 0.9486 0.3165 -197.5886 655.8215)" width="80.956" height="17.058" fill="#c7d6db"/>
	</g>
</g>
<g>
	<g>
		<rect y="494.933" width="512" height="17.067" fill="#c7d6db"/>
	</g>
</g>
<g>
</g>
<g>
</g>
<g>
</g>
<g>
</g>
<g>
</g>
<g>
</g>
<g>
</g>
<g>
</g>
<g>
</g>
<g>
</g>
<g>
</g>
<g>
</g>
<g>
</g>
<g>
</g>
<g>
</g>
</svg>
